<svg width="344" height="90" viewBox="0 0 344 90" fill="none" xmlns="http://www.w3.org/2000/svg">
<path d="M136.328 59.9354C136.328 53.969 137.458 48.6354 139.718 43.9345C144.509 34.0809 152.961 29.1541 165.075 29.1541C169.957 29.1541 174.477 30.1937 178.635 32.2729C184.511 35.2561 187.449 39.0529 187.449 43.6633C187.449 44.2057 187.359 44.7934 187.178 45.4262C186.364 48.1382 184.421 49.4038 181.347 49.223C180.262 49.1326 179.268 48.8614 178.364 48.4094C176.917 47.5054 175.923 45.2454 175.381 41.6293C175.109 40.0925 174.883 38.9625 174.703 38.2393C173.708 34.4425 170.77 32.5441 165.889 32.5441C162.725 32.5441 159.832 33.3577 157.21 34.9849C150.973 38.9625 147.854 46.8726 147.854 58.715C147.854 65.4047 149.21 71.1903 151.922 76.0719C155.538 82.4904 160.555 85.6996 166.973 85.6996C167.697 85.6996 168.42 85.6544 169.143 85.564C176.827 84.8408 182.342 80.9084 185.686 73.7667L189.212 74.9871C188.579 76.5239 187.72 78.0607 186.636 79.5976C181.844 86.1968 174.748 89.4964 165.346 89.4964C159.018 89.4964 153.368 87.824 148.396 84.4792C140.35 79.0552 136.328 70.8739 136.328 59.9354Z" fill="black"/>
<path d="M120.386 84.7505C120.929 84.7505 121.381 84.7957 121.742 84.8861C123.098 85.0669 123.776 86.1517 123.776 88.1405H90.2831V84.7505C93.3567 84.7505 95.5715 84.5245 96.9275 84.0725C99.2779 83.2589 100.453 80.7728 100.453 76.6144V33.9002H90.2831V30.5101H109.945L110.488 43.9346C111.663 41.2226 113.245 38.7818 115.234 36.6122C119.482 32.0017 124.319 29.6965 129.743 29.6965C130.557 29.6965 131.415 29.7869 132.319 29.9677C136.478 30.8717 138.557 33.3578 138.557 37.4258C138.557 37.9682 138.467 38.5106 138.286 39.053C137.563 41.6746 135.845 42.9854 133.133 42.9854C132.591 42.9854 132.048 42.895 131.506 42.7142C130.24 42.3526 128.884 40.9062 127.438 38.375C126.172 36.115 124.771 34.985 123.234 34.985C121.878 35.0754 120.206 36.0698 118.217 37.9682C113.154 42.9402 110.623 49.5395 110.623 57.7659V84.7505H120.386Z" fill="black"/>
<path d="M81.2629 84.7505C81.7149 84.7505 82.1669 84.7957 82.6189 84.8861C83.9749 85.0669 84.6529 86.1517 84.6529 88.1405H53.4647V84.7505C56.5383 84.7505 58.7532 84.5697 60.1092 84.2081C62.9116 83.3041 64.3128 80.7729 64.3128 76.6144V33.9002H53.4647V30.5102H74.4828V84.7505H81.2629ZM76.1101 10.7124C76.1101 11.7972 75.8841 12.8369 75.4321 13.8313C74.1664 16.7241 71.9516 18.1705 68.7876 18.1705C67.7932 18.1705 66.7988 17.9897 65.8044 17.6281C62.8212 16.3625 61.3296 14.0573 61.3296 10.7124C61.3296 9.62763 61.5556 8.58803 62.0076 7.59362C63.3636 4.7008 65.6236 3.25439 68.7876 3.25439C69.782 3.25439 70.8216 3.48039 71.9064 3.9324C74.7089 5.2884 76.1101 7.54842 76.1101 10.7124Z" fill="black"/>
<path d="M0 59.9354C0 53.969 1.13001 48.6354 3.39002 43.9345C8.18125 34.0809 16.6337 29.1541 28.7474 29.1541C33.629 29.1541 38.149 30.1937 42.3075 32.2729C48.1835 35.2561 51.1215 39.0529 51.1215 43.6633C51.1215 44.2057 51.0311 44.7934 50.8503 45.4262C50.0367 48.1382 48.0931 49.4038 45.0195 49.223C43.9347 49.1326 42.9403 48.8614 42.0363 48.4094C40.5898 47.5054 39.5954 45.2454 39.053 41.6293C38.7818 40.0925 38.5558 38.9625 38.375 38.2393C37.3806 34.4425 34.4426 32.5441 29.561 32.5441C26.397 32.5441 23.5041 33.3577 20.8825 34.9849C14.6449 38.9625 11.5261 46.8726 11.5261 58.715C11.5261 65.4047 12.8821 71.1903 15.5941 76.0719C19.2101 82.4904 24.2273 85.6996 30.6458 85.6996C31.369 85.6996 32.0922 85.6544 32.8154 85.564C40.4994 84.8408 46.0139 80.9084 49.3587 73.7667L52.8843 74.9871C52.2515 76.5239 51.3927 78.0607 50.3079 79.5976C45.5167 86.1968 38.4202 89.4964 29.0186 89.4964C22.6905 89.4964 17.0405 87.824 12.0685 84.4792C4.02283 79.0552 0 70.8739 0 59.9354Z" fill="black"/>
<path d="M331.101 79.3334L331.105 79.3253L331.108 79.3172C331.633 78.1062 332.332 77.2581 333.178 76.7062C334.025 76.1539 335.091 75.8516 336.429 75.8516C337.265 75.8516 338.061 76.0402 338.829 76.424L338.841 76.43L338.853 76.4357C340.07 77.0035 340.926 77.7359 341.484 78.6101C342.042 79.4841 342.344 80.5663 342.344 81.9028C342.344 82.7376 342.156 83.588 341.761 84.4617C341.195 85.6297 340.476 86.4527 339.624 86.9894C338.771 87.5275 337.72 87.8184 336.429 87.8184C335.594 87.8184 334.743 87.6304 333.87 87.2348C332.702 86.6691 331.879 85.9499 331.342 85.0985C330.804 84.245 330.513 83.1944 330.513 81.9028C330.513 81.0647 330.703 80.2108 331.101 79.3334Z" stroke="black" stroke-width="2"/>
<path d="M300.521 32.5443C298.171 32.5443 295.956 33.0867 293.877 34.1715C287.549 37.3355 284.159 44.1156 283.707 54.5117L298.081 54.9185C302.239 55.0089 305.448 54.8281 307.708 54.3761C312.048 53.3816 314.217 50.6244 314.217 46.1044C314.217 44.1156 313.856 42.2624 313.132 40.5448C311.053 35.2111 306.85 32.5443 300.521 32.5443ZM324.116 75.123C323.574 76.3886 322.941 77.6542 322.218 78.9198C317.607 85.971 310.42 89.4967 300.657 89.4967C294.51 89.4967 289.041 87.9147 284.249 84.7506C276.204 79.3266 272.181 71.0098 272.181 59.8001C272.181 53.6528 273.447 48.1384 275.978 43.2568C280.859 33.8551 288.95 29.1543 300.25 29.1543C306.036 29.1543 311.144 30.4651 315.573 33.0867C321.811 36.7027 324.93 41.5844 324.93 47.7316C324.93 51.0764 323.709 53.6529 321.268 55.4609C318.104 57.7209 311.008 58.7605 299.979 58.5797L283.707 58.3085C283.797 62.1053 284.204 65.5857 284.927 68.7497C287.368 80.0498 293.335 85.6998 302.827 85.6998C303.64 85.6998 304.499 85.6546 305.403 85.5642C312.454 84.6602 317.562 80.773 320.726 73.9026L324.116 75.123Z" fill="black"/>
<path d="M266.648 84.7505C267.191 84.7505 267.643 84.7957 268.004 84.8861C269.36 85.0669 270.038 86.1517 270.038 88.1405H238.986V84.7505C242.059 84.7505 244.274 84.5245 245.63 84.0725C247.981 83.2589 249.156 80.7729 249.156 76.6145V3.39002H238.986V0H259.326V84.7505H266.648Z" fill="black"/>
<path d="M246.258 84.7506C246.8 84.7506 247.252 84.7958 247.614 84.8862C248.97 85.067 249.648 86.1518 249.648 88.1406H230.528L229.579 74.3093C228.585 76.8405 227.274 79.1457 225.647 81.225C221.307 86.7394 215.748 89.4966 208.968 89.4966C196.131 89.4062 189.667 81.6318 189.577 66.1733V33.9003H179.135V30.5103H199.747V68.2073C199.747 69.6537 199.837 71.0097 200.018 72.2753C201.193 79.869 205.487 83.6658 212.9 83.6658C215.612 83.6658 218.234 82.807 220.765 81.0894C226.46 77.2925 229.308 71.3261 229.308 63.19V33.9003H218.189V30.5103H239.478V84.7506H246.258Z" fill="#5887FF"/>
</svg>
