<?xml version="1.0" encoding="UTF-8"?> <svg xmlns="http://www.w3.org/2000/svg" width="58" height="58" viewBox="0 0 58 58" fill="none"> <rect width="58" height="58" rx="20" fill="#FDFDFD"></rect> <path fill-rule="evenodd" clip-rule="evenodd" d="M12.7443 21.4656C11.5814 24.0238 11 26.5821 11 29.1403C11 36.5825 14.3722 41.9316 21.1167 45.1876C23.675 46.3504 26.2332 46.9318 28.7915 46.9318C36.2337 46.9318 41.5827 43.5596 44.8387 36.8151C46.0015 34.2568 46.583 31.6986 46.583 29.1403C46.583 21.4656 43.0944 16.0002 36.1174 12.7443C33.7917 11.5814 31.3497 11 28.7915 11C21.1167 11 15.7676 14.4885 12.7443 21.4656ZM40.1789 34.6321C38.897 37.2674 37.3483 38.9737 35.6409 40.0501C33.924 41.1325 31.7159 41.7865 28.7915 41.7865C27.0535 41.7865 25.2356 41.3998 23.2997 40.5278C20.6644 39.2458 18.9581 37.6971 17.8817 35.9898C16.7993 34.2728 16.1453 32.0647 16.1453 29.1403C16.1453 27.3862 16.5392 25.5508 17.4284 23.5947L17.4472 23.5532L17.4653 23.5114C18.6537 20.769 20.1548 19.0214 21.8343 17.9261C23.517 16.8287 25.7484 16.1453 28.7915 16.1453C30.5375 16.1453 32.1929 16.5347 33.8163 17.3463L33.8785 17.3774L33.9415 17.4068C36.7126 18.7 38.5028 20.2884 39.6295 22.0536C40.7555 23.8177 41.4377 26.1011 41.4377 29.1403C41.4377 30.8783 41.0509 32.6962 40.1789 34.6321Z" fill="#5887FF"></path> </svg> 